# xmcd
#
# Track frame offsets: 
#        150
#        16762
#        37879
#        55479
#        68141
#        79043
#        99195
#        112612
#        139129
#        156428
#        171405
#        190625
#        206110
#        223169
#        236579
#        253128
#        268441
#        286551
#        301203
#        315186
#        333635
#
# Disc length: 4625 seconds
#
# Revision: 2
# Processed by: cddbd v1.5.2PL0 Copyright (c) Steve Scherf et al.
# Submitted via: ExactAudioCopy v0.99pb3
#
DISCID=26120f15
DTITLE=Various Artist - Ik Hou Van Holland [CD 2)
DYEAR=2008
DGENRE=Nederlandstalig
TTITLE0=Fluitsma and Van Tijn - 15 Miljoen Mensen
TTITLE1=Paul De Leeuw - Vlieg Met Me Mee
TTITLE2=Linda, Roos and Jessica - Ademnood
TTITLE3=Luv - You're The Greatest Lover
TTITLE4=Teach In - Ding A Dong
TTITLE5=Willeke Alberti - Ome Jan
TTITLE6=Edsilia - Hemel En Aarde
TTITLE7=Het Goede Doel - België
TTITLE8=Spargo - You And Me
TTITLE9=Tol Hansse - Big City
TTITLE10=De Dijk - Nergens Goed Voor
TTITLE11=Danny De Munk - Ik Voel Me Zo Verdomd Alleen
TTITLE12=Hanny - Maar Vanavond Heb Ik Hoofdpijn
TTITLE13=Henk Wijngaard - Met De Vlam In De Pijp
TTITLE14=Ben Cramer - De Clown
TTITLE15=Maywood - Rio
TTITLE16=V.O.F. De Kunst - Een Kopje Koffie
TTITLE17=Tee Set - Ma Belle Amie
TTITLE18=Ron Brandsteder - Engelen Bestaan Niet
TTITLE19=Corry Konings - Mooi Was Die Tijd
TTITLE20=Koos Alberts - Ik Verscheurde Je Foto
EXTD=
EXTT0=
EXTT1=
EXTT2=
EXTT3=
EXTT4=
EXTT5=
EXTT6=
EXTT7=
EXTT8=
EXTT9=
EXTT10=
EXTT11=
EXTT12=
EXTT13=
EXTT14=
EXTT15=
EXTT16=
EXTT17=
EXTT18=
EXTT19=
EXTT20=
PLAYORDER=
